# xmcd
#
# Track frame offsets: 
#        150
#        11232
#        22920
#        35597
#        47935
#        58030
#        68340
#        79130
#        91550
#        102735
#        114712
#        126840
#        136780
#        148212
#        156515
#        164182
#        174392
#        186410
#        196002
#        205402
#        217265
#        226220
#        236282
#        247302
#        257510
#
# Disc length: 3581 seconds
#
# Revision: 9
# Processed by: cddbd v1.5.2PL0 Copyright (c) Steve Scherf et al.
# Submitted via: ExactAudioCopyFreeDBPlugin 1.0
#
DISCID=710dfb19
DTITLE=Johnny Cash - The Very Best Of Johnny Cash [CD 1)
DYEAR=1996
DGENRE=Country
TTITLE0=Cry, Cry, Cry
TTITLE1=So Doggone Lonesome
TTITLE2=Folsom Prison Blues
TTITLE3=I Walk The Line
TTITLE4=Get Rhythm
TTITLE5=There You Go
TTITLE6=Train Of Love
TTITLE7=Next In Line
TTITLE8=Don't Make Me Go
TTITLE9=Home Of The Blues
TTITLE10=Give My Love To Rose
TTITLE11=Ballad Of A Teenage Queen
TTITLE12=Big River
TTITLE13=Guess Things Happen That Way
TTITLE14=Come In Stranger
TTITLE15=The Ways Of A Woman In Love
TTITLE16=You're The Nearest Thing To Heaven
TTITLE17=It's Just About Time
TTITLE18=Luther Played The Boogie
TTITLE19=Thanks A Lot
TTITLE20=Katy Too
TTITLE21=Goodbye Little Darlin'
TTITLE22=I Love You Because
TTITLE23=Straight A's In Love
TTITLE24=Mean-Eyed Cat
EXTD=(c)1996 Charly Schallplatten GmbH Germany\nCPCD 8241-2\nupc 40176
EXTD=92300420 YEAR: 2001 ID3G: 2
EXTT0=
EXTT1=
EXTT2=
EXTT3=
EXTT4=
EXTT5=
EXTT6=
EXTT7=
EXTT8=
EXTT9=
EXTT10=
EXTT11=
EXTT12=
EXTT13=
EXTT14=
EXTT15=
EXTT16=
EXTT17=
EXTT18=
EXTT19=
EXTT20=
EXTT21=
EXTT22=
EXTT23=
EXTT24=
PLAYORDER=
